<svg xmlns="http://www.w3.org/2000/svg" width="32" height="32" viewBox="0 0 32 32">
    <path fill="#454444" fill-rule="evenodd" d="M28.247 30.917H6V6h15.691v4.352h6.556v20.565zm-6.556-1.533h4.987V27.73H21.69v1.655zm-5.515 0h3.946V27.73h-3.946v1.655zm-8.622-.015h3.961v-1.64H7.554v1.64zm5.515 0h1.553v-2.896H13.07v2.896zm8.622-3.157h4.987V11.884H21.69v14.328zm-5.515 0h3.946V7.532H7.554v18.665h3.961v-1.272h4.66v1.287zm8.793-1.992h-1.554v-2.038h1.554v2.038zm-6.975 0H16.44v-2.038h1.554v2.038zm-3.372 0H13.07v-2.038h1.553v2.038zm-3.355 0H9.713v-2.038h1.554v2.038zm13.702-4.153h-1.554V18.03h1.554v2.038zm-6.975 0H16.44V18.03h1.554v2.038zm-3.372 0H13.07V18.03h1.553v2.038zm-3.355 0H9.713V18.03h1.554v2.038zm13.702-4.152h-1.554V13.86h1.554v2.054zm-6.975 0H16.44V13.86h1.554v2.054zm-3.372 0H13.07V13.86h1.553v2.054zm-3.355 0H9.713V13.86h1.554v2.054zm6.727-4.184H16.44V9.708h1.554v2.023zm-3.372 0H13.07V9.708h1.553v2.023zm-3.355 0H9.713V9.708h1.554v2.023z"/>
</svg>
