<?xml version="1.0"?>
<svg xmlns="http://www.w3.org/2000/svg" xmlns:xlink="http://www.w3.org/1999/xlink" version="1.1" id="Capa_1" x="0px" y="0px" width="512px" height="512px" viewBox="0 0 212.975 212.975" style="enable-background:new 0 0 212.975 212.975;" xml:space="preserve" class=""><g><g>
	<path d="M138.372,45.924l-7.905-11.018l-7.505,5.263l-20.703-7.727l-31.006,83.083l-31.01-83.083l-1.696,0.635v-0.13H0v143.678   h38.547v-38.75l15.822,42.657l16.883-6.304l16.88,6.304l33.819-90.624l59.471,84.751l31.552-22.135L138.31,46.095L138.372,45.924z    M126.941,41.654l2.663-1.867l2.724,3.879l-1.92-0.719L126.941,41.654z M35.043,173.12H3.504v-7.009h15.769v-3.504H3.504v-7.009   h15.769v-3.504H3.504v-7.009h15.769v-3.504H3.504v-7.009h15.769v-3.505H3.504v-7.008h15.769v-3.505H3.504v-7.009h15.769v-3.504   H3.504v-7.01h15.769v-3.504H3.504V92.52h15.769v-3.504H3.504v-7.009h15.769v-3.504H3.504v-7.009h15.769V67.99H3.504v-7.008h15.769   v-3.504H3.504v-7.009h15.769v-3.504H3.504V36.451h31.539v91.976V173.12z M53.24,167.484l15.605-6.434l-1.334-3.241l-15.494,6.393   l-2.452-6.577l15.271-6.297l-1.335-3.237l-15.164,6.252l-2.454-6.57l14.939-6.163l-1.334-3.238l-14.827,6.112l-2.454-6.57   l14.613-6.026l-1.335-3.237l-14.505,5.979l-2.431-6.516v-0.062l14.258-5.887l-1.334-3.237l-12.924,5.332V117.6l10.169-4.196   l-1.338-3.237l-8.831,3.648v-6.321l6.16-2.544l-1.338-3.237l-4.822,1.99V37.923l30.833,82.612l0,0l16.594,44.461l-29.552,11.026   L53.24,167.484z M86.079,176.022l-9.811-3.662l12.152-4.538l0.835-0.311L86.079,176.022z M89.955,165.633L76.208,128.8l8.704,3.412   l1.277-3.269l-11.628-4.555l-1.439-3.854l1.379-3.699l14.243,5.582l1.274-3.269l-14.294-5.603l2.454-6.557l14.398,5.637   l1.275-3.265l-14.45-5.657l2.449-6.567l14.556,5.701l1.276-3.265l-14.606-5.724l2.449-6.564l14.715,5.765l1.275-3.265   l-14.763-5.783l2.454-6.567l14.869,5.825l1.275-3.267l-14.921-5.841l2.449-6.567l15.027,5.884l1.274-3.266l-15.074-5.9l2.45-6.571   l15.183,5.946l1.276-3.267L97.78,54.448l2.454-6.565l15.34,6.006l1.273-3.267l-15.39-6.026l2.852-7.65l15.162,5.658l0,0   l14.384,5.37l-14.346,38.444l0,0L89.955,165.633z M208.095,151.67l-25.816,18.11l-4.881-6.947l13.863-10.249l-2.084-2.823   l-13.795,10.198l-4.027-5.739l13.654-10.092l-2.084-2.82l-13.583,10.041l-4.024-5.742l13.442-9.938l-2.084-2.819l-13.377,9.883   l-4.021-5.735l13.233-9.784l-2.084-2.823l-13.165,9.732l-4.024-5.735l13.025-9.63l-2.081-2.82l-12.956,9.575l-4.024-5.738   l12.812-9.47l-2.088-2.823l-12.737,9.422l-4.024-5.739l12.597-9.317l-2.084-2.822l-12.531,9.268l-4.025-5.739l12.393-9.159   l-2.085-2.822l-12.319,9.112l-4.024-5.736l12.183-9.01l-2.087-2.82l-12.111,8.956l-3.624-5.161l0.451-1.209l11.115-8.222   l-2.08-2.82l-6.79,5.017l10.681-28.62L208.095,151.67z" data-original="#000000" class="active-path" data-old_color="#000000" fill="#DDD285"/>
</g></g> </svg>
