<svg xmlns="http://www.w3.org/2000/svg" width="32" height="32" viewBox="0 0 32 32">
    <path fill="#454444" fill-rule="evenodd" d="M25.246 31h-7.621v-4.51h3.039V10.241H8.525v1.922H6.9v-3.32L21.525 4.81l5.363 4.161v2.764h1.38v4.193h-4.322v-4.193h1.365v-1.493h-3.104v16.247h3.04V31zm-6.077-1.588h4.452v-1.318H19.25l-.081 1.318zm6.402-15.073h1.105v-1h-1.105v1zm-3.364-5.685h1.625l-1.625-1.319v1.319zm-8.58 0h6.955V6.748l-6.955 1.906zM15.61 31H3V13.116h12.61V31zm-3.884-1.588h2.259v-1.27h-2.259v1.27zm-3.25 0h1.625v-2.7H8.476v2.7zm-3.9 0h2.308v-1.27H4.625l-.049 1.27zm7.102-2.875h2.307V14.705h-9.36V26.52h2.259v-1.413h4.875l-.082 1.43zm.243-2.668h-1.625v-2.287h1.625v2.287zm-3.477 0H6.819v-2.287h1.625v2.287zm3.477-4.685h-1.625v-2.272h1.625v2.272zm-3.477 0H6.819v-2.272h1.625v2.272z"/>
</svg>
