<svg xmlns="http://www.w3.org/2000/svg" width="32" height="32" viewBox="0 0 32 32">
    <path fill="#454444" fill-rule="evenodd" d="M6.876 16l4.44 3.812 4.667-3.806 4.487 3.81 4.666-3.806L32 21.705l-.955 1.118-.592-.49V31H1.494v-8.623l-.538.446L0 21.705 6.876 16zm18.252 1.915l-3.781 3.084v8.538h2.199v-3.385h3.115v3.385h2.31l-.001-8.435-3.842-3.187zm-9.164.004L12.188 21v8.538h2.252v-3.385h3.116l-.001 3.385h2.256v-8.349l-3.847-3.269zm-9.105.006l-3.883 3.221v8.392l2.305-.001v-3.385h3.116l-.001 3.385h2.256v-8.356l-3.793-3.256zm18.547 9.464h-.605v1.913h.605v-1.913zm-18.265 0h-.604v1.913h.604v-1.913zm9.16 0h-.605v1.913h.604v-1.913zm8.831-6.527c.845 0 1.53.675 1.53 1.507 0 .832-.685 1.507-1.53 1.507a1.518 1.518 0 0 1-1.529-1.507c0-.832.685-1.507 1.53-1.507zm-9.159 0c.845 0 1.53.675 1.53 1.507 0 .832-.685 1.507-1.53 1.507a1.518 1.518 0 0 1-1.529-1.507c0-.832.685-1.507 1.53-1.507zm-9.159 0c.845 0 1.53.675 1.53 1.507 0 .832-.685 1.507-1.53 1.507a1.518 1.518 0 0 1-1.529-1.507c0-.832.685-1.507 1.53-1.507zm18.318 1.125a.385.385 0 0 0-.388.382c0 .211.174.382.388.382a.385.385 0 0 0 .388-.382.385.385 0 0 0-.388-.382zm-9.159 0a.385.385 0 0 0-.388.382c0 .211.174.382.388.382a.385.385 0 0 0 .388-.382.385.385 0 0 0-.388-.382zm-9.159 0a.385.385 0 0 0-.388.382c0 .211.174.382.388.382a.385.385 0 0 0 .388-.382.385.385 0 0 0-.388-.382z"/>
</svg>
