<?xml version="1.0" encoding="utf-8"?>
<!-- Generator: Adobe Illustrator 15.1.0, SVG Export Plug-In . SVG Version: 6.00 Build 0)  -->
<!DOCTYPE svg PUBLIC "-//W3C//DTD SVG 1.1//EN" "http://www.w3.org/Graphics/SVG/1.1/DTD/svg11.dtd">
<svg version="1.1" id="Layer_1" xmlns="http://www.w3.org/2000/svg" xmlns:xlink="http://www.w3.org/1999/xlink" x="0px" y="0px"
	 width="511px" height="511px" viewBox="0 0 511 511" enable-background="new 0 0 511 511" xml:space="preserve">
<path fill="#FFFFFF" d="M468.574,84.66h-4.382c-2.565-21.98-20.254-39.407-42.358-41.54c-2.538-23.696-22.64-42.214-46.994-42.214
	H73.21c-40.367,0-73.208,32.842-73.208,73.205V285.6c0,24.525,18.768,44.74,42.69,47.053c2.511,23.441,22.218,41.805,46.222,42.19
	c0.063,4.16,0.713,8.175,1.895,11.965c5.376,17.259,21.509,29.825,40.515,29.825h337.251c23.396,0,42.429-19.033,42.429-42.426
	V127.089C511.003,103.693,491.97,84.66,468.574,84.66z M491.042,127.089v163.419l-43.415-32.795
	c-11.863-8.959-27.906-9.1-39.922-0.348l-54.92,40.016L248.052,189.404c-12.476-12.865-32.776-13.657-46.214-1.797l-92.979,82.031
	v-142.55c0-12.39,10.078-22.468,22.464-22.468h337.251C480.964,104.621,491.042,114.699,491.042,127.089z M491.042,374.203
	c0,12.391-10.078,22.469-22.464,22.469H131.323c-10.063,0-18.604-6.656-21.45-15.794c-0.659-2.109-1.014-4.351-1.014-6.671v-77.953
	l106.187-93.68c5.431-4.795,13.633-4.476,18.678,0.725l47.268,48.733c0,0.004,0,0.004,0.004,0.004l94.077,96.994
	c1.957,2.019,4.558,3.032,7.166,3.032c2.503,0,5.01-0.936,6.947-2.814c3.953-3.84,4.051-10.156,0.214-14.113l-22.58-23.282
	l52.639-38.351c4.858-3.54,11.342-3.485,16.137,0.137l55.446,41.883V374.203z M62.38,327.588V91.939
	c0-1.002,0.051-1.996,0.152-2.971c1.489-14.647,13.898-26.113,28.932-26.113h122.082c5.513,0,9.98-4.468,9.98-9.98
	s-4.468-9.98-9.98-9.98H91.464c-27.045,0-49.045,22-49.045,49.045v220.545c-12.752-2.297-22.456-13.478-22.456-26.885V74.11
	c0-29.356,23.887-53.244,53.248-53.244H374.84c13.247,0,24.323,9.485,26.791,22.027H293.389c-5.512,0-9.98,4.468-9.98,9.98
	s4.469,9.98,9.98,9.98h118.737h0.012h5.119c13.169,0,24.194,9.376,26.748,21.805H131.323c-23.392,0-42.425,19.033-42.425,42.429
	v164.655v0.008v63.13C74.205,354.465,62.38,342.383,62.38,327.588z"/>
<path fill="#FFFFFF" d="M387.76,145.241c-23.556,0-42.714,19.162-42.714,42.709c0,23.552,19.162,42.713,42.714,42.713
	c23.548,0,42.709-19.162,42.709-42.713C430.469,164.403,411.308,145.241,387.76,145.241z M387.76,210.703
	c-12.546,0-22.753-10.207-22.753-22.749c0-12.546,10.207-22.752,22.753-22.752c12.542,0,22.748,10.206,22.748,22.752
	C410.508,200.496,400.302,210.703,387.76,210.703z"/>
<path fill="#FFFFFF" d="M244.255,56.695c0.25,0.601,0.558,1.177,0.916,1.719c0.363,0.546,0.78,1.057,1.24,1.517
	c0.46,0.456,0.967,0.877,1.517,1.248c0.538,0.358,1.127,0.667,1.727,0.916c0.597,0.25,1.229,0.44,1.868,0.569
	c0.635,0.129,1.294,0.191,1.945,0.191c0.659,0,1.306-0.062,1.957-0.191c0.636-0.129,1.255-0.32,1.864-0.569
	c0.601-0.25,1.177-0.558,1.72-0.916c0.545-0.37,1.057-0.792,1.516-1.248c0.469-0.46,0.877-0.971,1.248-1.517
	c0.358-0.542,0.666-1.119,0.916-1.719c0.25-0.608,0.44-1.236,0.569-1.864c0.129-0.651,0.19-1.31,0.19-1.957
	c0-0.651-0.062-1.31-0.19-1.945c-0.129-0.639-0.319-1.271-0.569-1.868c-0.25-0.608-0.558-1.189-0.916-1.727
	c-0.371-0.549-0.779-1.056-1.248-1.516c-0.459-0.46-0.971-0.877-1.516-1.24c-0.543-0.358-1.119-0.667-1.72-0.916
	c-0.608-0.25-1.228-0.44-1.864-0.569c-1.291-0.261-2.616-0.261-3.902,0c-0.639,0.129-1.271,0.32-1.868,0.569
	c-0.6,0.25-1.189,0.558-1.727,0.916c-0.549,0.363-1.056,0.78-1.517,1.24c-0.46,0.46-0.877,0.967-1.24,1.516
	c-0.358,0.538-0.667,1.119-0.916,1.727c-0.25,0.597-0.44,1.229-0.569,1.868c-0.128,0.635-0.199,1.294-0.199,1.945
	c0,0.647,0.07,1.306,0.199,1.957C243.814,55.459,244.005,56.087,244.255,56.695z"/>
</svg>
