<?xml version="1.0" encoding="utf-8"?>
<!-- Generator: Adobe Illustrator 15.1.0, SVG Export Plug-In  -->
<!DOCTYPE svg PUBLIC "-//W3C//DTD SVG 1.1//EN" "http://www.w3.org/Graphics/SVG/1.1/DTD/svg11.dtd" [
	<!ENTITY ns_flows "http://ns.adobe.com/Flows/1.0/">
]>
<svg version="1.1"
	 xmlns="http://www.w3.org/2000/svg" xmlns:xlink="http://www.w3.org/1999/xlink" xmlns:a="http://ns.adobe.com/AdobeSVGViewerExtensions/3.0/"
	 x="0px" y="0px" width="28px" height="28px" viewBox="-0.417 -0.382 28 28" enable-background="new -0.417 -0.382 28 28"
	 xml:space="preserve">
<defs>
</defs>
<path fill="#FFFFFF" d="M27.387,21.373c-1.51,0.001-2.997,0.052-4.354,0.133c0.047-2.5-0.102-5.198,0.072-7.571
	c0.665,0.106,1.436,0.466,1.971,0.15c0.694-0.408,0.611-2.445,0.531-3.558c-0.275-3.751-2.161-7.653-2.956-10.449
	c-0.003-0.045-0.009-0.089-0.075-0.075C21.971,1.81,21.269,3.688,20.61,6.06c-0.615,2.208-1.261,4.498-0.984,6.814
	c0.209,1.759,1.368,1.244,2.651,1.135c-0.054,2.525,0.1,5.25-0.077,7.647c-2.007,0.138-3.789,0.501-5.68,0.757V13.1
	c0.279,0.219,0.927,0.325,1.361,0.152c1.198-1.73-1.502-2.355-2.268-3.332c0.254-1.198,0.087-2.647-0.984-2.574
	c-0.524,0.036-0.802,0.477-0.91,1.135c-1.002-0.218-1.503-1.755-2.726-1.741c-0.543,0.006-1.425,0.758-2.044,1.21
	c-1.417,1.036-2.369,1.865-3.711,2.877c-0.575,0.435-1.658,0.912-1.513,1.817c0.145,0.915,1.136,0.73,1.741,0.53
	c-0.051,1.743,0.1,3.685-0.077,5.301C3.776,17.668,1.962,16.973,0,16.42v3.679c4.341,0.435,8.428,1.451,11.523,2.92
	c-0.617-0.707-1.286-1.316-2.119-1.968c-0.525-0.413-2.154-1.15-2.348-1.743c-0.332-1.015,0-2.516,0-3.708v-3.71
	c1.242-1.056,2.557-2.038,3.938-2.954c0.704,0.436,1.348,0.916,2.044,1.439c0.433,0.325,1.738,1.087,1.892,1.589
	c0.202,0.642,0,1.84,0,2.65v8.177C9.601,23.98,4.675,25.57,0.173,27.584h7.469c6.295-1.368,13.004-2.208,19.746-1.747V21.373z"/>
</svg>
