<?xml version="1.0" encoding="utf-8"?>
<!-- Generator: Adobe Illustrator 15.1.0, SVG Export Plug-In . SVG Version: 6.00 Build 0)  -->
<!DOCTYPE svg PUBLIC "-//W3C//DTD SVG 1.1//EN" "http://www.w3.org/Graphics/SVG/1.1/DTD/svg11.dtd">
<svg version="1.1" id="Capa_1" xmlns="http://www.w3.org/2000/svg" xmlns:xlink="http://www.w3.org/1999/xlink" x="0px" y="0px"
	 width="512px" height="512px" viewBox="0 0 512 512" enable-background="new 0 0 512 512" xml:space="preserve">
<g>
	<path fill="#FFFFFF" d="M510.4,249.292l-28.415-56.831v-51.457c0-44.111-35.888-79.997-79.997-79.997
		c-42.431,0-77.234,33.209-79.825,74.998H44.999C20.186,136.004,0,156.19,0,181.002v224.993c0,25.541,21.403,44.999,43.551,44.999
		h328.438c24.813,0,44.999-20.187,44.999-44.999v-77.578c17.458-6.192,29.999-22.864,29.999-42.419v-15h49.997
		C508.113,271,515.385,259.261,510.4,249.292L510.4,249.292z M210.829,308.334L57.44,166.003h264.55v26.458l-9.014,18.026
		L210.829,308.334z M371.988,420.995H44.999c-8.271,0-15-6.728-15-15v-224.53L200.79,339.941c5.803,5.385,14.824,5.35,20.578-0.162
		l75.714-72.527c2.702,2.379,6.209,3.747,9.907,3.747h49.998v15c0,19.554,12.541,36.228,29.999,42.419v77.578
		C386.988,414.266,380.259,420.995,371.988,420.995L371.988,420.995z M416.987,285.999c0,8.271-6.729,15-15,15s-15-6.728-15-15v-15
		h29.999L416.987,285.999L416.987,285.999z M331.26,241l19.146-38.291c2.77-5.537,1.069-5.211,1.584-61.706
		c0-27.569,22.429-49.998,49.998-49.998c27.568,0,49.998,22.429,49.998,49.998c0.513,56.491-1.188,56.166,1.584,61.706L472.715,241
		H331.26z"/>
</g>
</svg>
