<?xml version="1.0" encoding="utf-8"?>
<!-- Generator: Adobe Illustrator 15.1.0, SVG Export Plug-In . SVG Version: 6.00 Build 0)  -->
<!DOCTYPE svg PUBLIC "-//W3C//DTD SVG 1.1//EN" "http://www.w3.org/Graphics/SVG/1.1/DTD/svg11.dtd">
<svg version="1.1" id="Capa_1" xmlns="http://www.w3.org/2000/svg" xmlns:xlink="http://www.w3.org/1999/xlink" x="0px" y="0px"
	 width="512px" height="512px" viewBox="0 0 512 512" enable-background="new 0 0 512 512" xml:space="preserve">
<path fill="#FFFFFF" d="M402.286,292.571c-36.293,0-68.275,17.915-88.258,45.146l-99.848-49.936
	c3.092-10.128,5.248-20.657,5.248-31.782s-2.156-21.656-5.248-31.781l99.848-49.936c19.982,27.23,51.965,45.146,88.258,45.146
	c60.499,0,109.714-49.215,109.714-109.714S462.786,0,402.286,0c-60.501,0-109.715,49.215-109.715,109.714
	c0,11.125,2.158,21.654,5.25,31.779l-99.851,49.938c-19.983-27.229-51.965-45.145-88.257-45.145C49.214,146.286,0,195.5,0,256
	s49.214,109.714,109.714,109.714c36.292,0,68.275-17.915,88.257-45.145l99.848,49.938c-3.092,10.124-5.248,20.653-5.248,31.779
	c0,60.499,49.214,109.714,109.715,109.714c60.5,0,109.714-49.215,109.714-109.714C512,341.787,462.785,292.571,402.286,292.571
	L402.286,292.571z M402.286,36.572c40.34,0,73.143,32.822,73.143,73.143c0,40.322-32.805,73.143-73.143,73.143
	c-40.34,0-73.143-32.822-73.143-73.143S361.947,36.572,402.286,36.572z M109.714,329.143c-40.34,0-73.143-32.821-73.143-73.142
	c0-40.322,32.804-73.143,73.143-73.143c40.34,0,73.143,32.822,73.143,73.143S150.054,329.143,109.714,329.143z M402.286,475.428
	c-40.34,0-73.143-32.821-73.143-73.143c0-40.32,32.804-73.143,73.143-73.143c40.34,0,73.143,32.822,73.143,73.143
	C475.429,442.607,442.626,475.428,402.286,475.428z"/>
</svg>
