<?xml version="1.0" encoding="utf-8"?>
<!-- Generator: Adobe Illustrator 15.1.0, SVG Export Plug-In . SVG Version: 6.00 Build 0)  -->
<!DOCTYPE svg PUBLIC "-//W3C//DTD SVG 1.1//EN" "http://www.w3.org/Graphics/SVG/1.1/DTD/svg11.dtd">
<svg version="1.1" id="Capa_1" xmlns="http://www.w3.org/2000/svg" xmlns:xlink="http://www.w3.org/1999/xlink" x="0px" y="0px"
	 width="512px" height="512px" viewBox="0 0 512 512" enable-background="new 0 0 512 512" xml:space="preserve">
<g>
	<g>
		<g>
			<g>
				<path fill="#FFFFFF" d="M379.655,170.335c-5.522,0-10-4.478-10-10V91.956c0-5.522,4.478-10,10-10c5.521,0,10,4.478,10,10v68.379
					C389.655,165.857,385.178,170.335,379.655,170.335z"/>
			</g>
		</g>
		<g>
			<g>
				<circle fill="#FFFFFF" cx="379.612" cy="59.778" r="10"/>
			</g>
		</g>
		<g>
			<path fill="#FFFFFF" d="M484.647,105.057C484.647,47.128,437.529,0,379.611,0c-23.974,0-46.096,8.074-63.793,21.646H63.745
				c-20.067,0-36.393,16.325-36.393,36.393v363.773c0,20.066,16.326,36.394,36.393,36.394h31.731v17.399
				c0,20.067,16.326,36.395,36.393,36.395H393.33c20.067,0,36.393-16.326,36.393-36.395V336.904c0-5.522-4.478-10-10-10
				c-5.521,0-10,4.478-10,10v138.701c0,9.039-7.354,16.395-16.393,16.395H131.869c-9.039,0-16.393-7.354-16.393-16.395v-17.399
				h209.731c20.067,0,36.394-16.326,36.394-36.394V208.568c5.854,1.016,11.871,1.546,18.012,1.546
				c10.461,0,20.569-1.538,30.111-4.399v40.778c0,5.522,4.479,10,10,10c5.522,0,10-4.478,10-10v-49.125
				C462.416,179.542,484.648,144.848,484.647,105.057L484.647,105.057z M341.601,421.813c0,9.039-7.354,16.395-16.394,16.395H63.745
				c-9.039,0-16.393-7.354-16.393-16.395V58.039c0-9.039,7.354-16.393,16.393-16.393h232.171
				c-12.552,16.533-20.326,36.883-21.248,58.974H104.377c-5.522,0-10,4.478-10,10v42.234c0,5.522,4.478,10,10,10h180.198
				c2.272,0,4.368-0.759,6.049-2.037c11.946,19.004,29.806,33.931,50.977,42.179V421.813z M274.575,120.62v22.234H114.377V120.62
				H274.575z M379.611,190.113c-46.89,0-85.036-38.156-85.036-85.057c0-46.9,38.146-85.057,85.036-85.057
				s85.036,38.156,85.036,85.057S426.501,190.113,379.611,190.113z"/>
			<g>
				<g>
					<path fill="#FFFFFF" d="M419.72,301.52c-4.12,0-7.896-2.637-9.349-6.481c-1.491-3.946-0.271-8.586,3.009-11.255
						c3.285-2.674,8.014-2.994,11.617-0.758c3.596,2.231,5.438,6.635,4.464,10.764C428.408,298.255,424.315,301.52,419.72,301.52z"
						/>
				</g>
			</g>
		</g>
		<g>
			<g>
				<g>
					<g>
						<path fill="#FFFFFF" d="M284.575,217.633H104.377c-5.522,0-10-4.477-10-10c0-5.522,4.478-10,10-10h180.198
							c5.522,0,10,4.478,10,10C294.575,213.155,290.098,217.633,284.575,217.633z"/>
					</g>
				</g>
				<g>
					<g>
						<path fill="#FFFFFF" d="M284.575,265.063H104.377c-5.522,0-10-4.478-10-10c0-5.523,4.478-10,10-10h180.198
							c5.522,0,10,4.477,10,10C294.575,260.585,290.098,265.063,284.575,265.063z"/>
					</g>
				</g>
				<g>
					<g>
						<path fill="#FFFFFF" d="M284.575,312.493H104.377c-5.522,0-10-4.478-10-10s4.478-10,10-10h180.198c5.522,0,10,4.478,10,10
							S290.098,312.493,284.575,312.493z"/>
					</g>
				</g>
				<g>
					<g>
						<path fill="#FFFFFF" d="M284.575,359.923H104.377c-5.522,0-10-4.478-10-10s4.478-10,10-10h180.198c5.522,0,10,4.478,10,10
							S290.098,359.923,284.575,359.923z"/>
					</g>
				</g>
			</g>
		</g>
	</g>
</g>
</svg>
