<svg xmlns="http://www.w3.org/2000/svg" width="32" height="32" viewBox="0 0 32 32">
    <path fill="#454444" fill-rule="evenodd" d="M29.095 30.999H3.49v-12.65l-1.5 1.318-.99-1.18L11.5 9.44l3.24 2.883h15.87v11.5h-1.5l-.015 7.176zm-9.75-1.534h8.235v-5.642h-8.235v5.642zm-5.745 0h4.245V17.107L11.5 11.464l-6.495 5.643v12.42h4.17v-4.754h4.5l-.075 4.692zm-2.925 0h1.5v-3.158h-1.5v3.158zm8.67-7.176h9.765v-8.433h-12.6l5.325 4.6-.975 1.18-1.5-1.318-.015 3.971zm-7.95-.812a2.22 2.22 0 0 1-2.062-1.39 2.306 2.306 0 0 1 .472-2.479 2.185 2.185 0 0 1 2.421-.499 2.27 2.27 0 0 1 1.374 2.098c0 1.248-.985 2.261-2.205 2.27zm0-2.99a.702.702 0 0 0-.61.36.735.735 0 0 0 0 .72c.125.224.358.361.61.361.39 0 .705-.323.705-.72a.713.713 0 0 0-.705-.721z"/>
</svg>
